<svg width="165.089844" height="80.000023" viewBox="0 0 165.09 80" fill="none" xmlns="http://www.w3.org/2000/svg" xmlns:xlink="http://www.w3.org/1999/xlink">
	<desc>
			Created with Pixso.
	</desc>
	<defs>
		<linearGradient x1="0.400146" y1="46.375076" x2="164.986359" y2="46.375076" id="paint_linear_9_452_0" gradientUnits="userSpaceOnUse">
			<stop stop-color="#F9DF7C"/>
			<stop offset="0.010000" stop-color="#F4D875"/>
			<stop offset="0.120000" stop-color="#D9B14A"/>
			<stop offset="0.210000" stop-color="#C5952A"/>
			<stop offset="0.290000" stop-color="#B98417"/>
			<stop offset="0.340000" stop-color="#B57E11"/>
			<stop offset="0.390000" stop-color="#C39228"/>
			<stop offset="0.470000" stop-color="#D6AE46"/>
			<stop offset="0.550000" stop-color="#E5C35E"/>
			<stop offset="0.630000" stop-color="#F0D36E"/>
			<stop offset="0.730000" stop-color="#F6DC78"/>
			<stop offset="0.840000" stop-color="#F9DF7C"/>
			<stop offset="0.870000" stop-color="#F6DB77"/>
			<stop offset="0.900000" stop-color="#EECF6B"/>
			<stop offset="0.930000" stop-color="#E0BC56"/>
			<stop offset="0.970000" stop-color="#CEA138"/>
			<stop offset="1.000000" stop-color="#B57E11"/>
		</linearGradient>
	</defs>
	<path id="Vector" d="M76.13 4L74.79 3.37L73.49 4.12L73.68 2.64L72.57 1.64L74.03 1.36L74.64 1.14e-5L75.36 1.3L76.85 1.46L75.82 2.54L76.13 4Z" fill="#166AB3" fill-opacity="1.000000" fill-rule="nonzero"/>
	<path id="Vector" d="M84.05 4L82.71 3.37L81.41 4.12L81.6 2.64L80.49 1.64L81.95 1.36L82.56 0L83.28 1.3L84.76 1.45L83.73 2.54L84.05 4Z" fill="#166AB3" fill-opacity="1.000000" fill-rule="nonzero"/>
	<path id="Vector" d="M91.97 4L90.62 3.36L89.33 4.12L89.52 2.64L88.41 1.65L89.87 1.36L90.47 0L91.19 1.31L92.68 1.46L91.66 2.55L91.97 4L91.97 4Z" fill="#166AB3" fill-opacity="1.000000" fill-rule="nonzero"/>
	<path id="Vector" d="M1.1 79.88L0 74.97L1.53 74.97L1.85 77.53C1.86 77.66 1.88 77.92 1.9 78.31C1.91 78.7 1.92 78.93 1.93 79.01L1.95 79.01C1.97 78.8 2 78.52 2.03 78.18C2.06 77.84 2.08 77.63 2.09 77.55L2.63 74.97L4.08 74.97L4.57 77.53C4.59 77.64 4.6 77.77 4.62 77.92C4.63 78.07 4.65 78.25 4.66 78.46C4.68 78.67 4.69 78.85 4.7 78.98L4.71 78.98C4.72 78.87 4.73 78.69 4.74 78.46C4.75 78.22 4.77 78.03 4.78 77.88C4.79 77.74 4.8 77.62 4.81 77.53L5.19 74.97L6.65 74.97L5.54 79.88L3.82 79.88L3.46 77.46C3.44 77.35 3.42 77.14 3.4 76.81C3.38 76.49 3.36 76.16 3.34 75.84L3.32 75.84C3.26 76.7 3.21 77.25 3.17 77.46L2.77 79.88L1.1 79.88L1.1 79.88Z" fill="#1D1D1B" fill-opacity="1.000000" fill-rule="nonzero"/>
	<path id="Vector" d="M8.83 77.81L8.83 79.88L7.24 79.88L7.24 74.97L8.83 74.97L8.83 76.82L9.87 76.82L9.87 74.97L11.46 74.97L11.46 79.88L9.87 79.88L9.87 77.81L8.83 77.81Z" fill="#1D1D1B" fill-opacity="1.000000" fill-rule="nonzero"/>
	<path id="Vector" d="M12.44 79.88L12.44 74.97L16.13 74.97L16.13 75.9L14.03 75.9L14.03 76.85L15.97 76.85L15.97 77.78L14.03 77.78L14.03 78.95L16.13 78.95L16.13 79.88L12.44 79.88Z" fill="#1D1D1B" fill-opacity="1.000000" fill-rule="nonzero"/>
	<path id="Vector" d="M18.84 77.97L18.49 77.97L18.49 79.88L16.91 79.88L16.91 74.97L19.4 74.97C19.73 74.97 20.03 75.02 20.29 75.11C20.55 75.21 20.76 75.35 20.91 75.53C21.06 75.72 21.13 75.95 21.13 76.21C21.13 76.57 21.06 76.84 20.93 77.02C20.79 77.2 20.56 77.34 20.24 77.45C20.78 77.57 21.06 77.86 21.06 78.33L21.06 79.26C21.06 79.57 21.15 79.72 21.34 79.72L21.34 79.88L19.95 79.88C19.76 79.88 19.63 79.83 19.57 79.72C19.5 79.62 19.47 79.46 19.47 79.24L19.47 78.44C19.47 78.27 19.43 78.15 19.34 78.08C19.24 78 19.08 77.96 18.84 77.96L18.84 77.97ZM18.49 75.85L18.49 77.09L18.9 77.09C19.33 77.09 19.55 76.88 19.55 76.47C19.55 76.06 19.33 75.85 18.89 75.85L18.49 75.85L18.49 75.85Z" fill="#1D1D1B" fill-opacity="1.000000" fill-rule="nonzero"/>
	<path id="Vector" d="M21.96 79.88L21.96 74.97L25.64 74.97L25.64 75.9L23.54 75.9L23.54 76.85L25.48 76.85L25.48 77.78L23.54 77.78L23.54 78.95L25.64 78.95L25.64 79.88L21.96 79.88Z" fill="#1D1D1B" fill-opacity="1.000000" fill-rule="nonzero"/>
	<path id="Vector" d="M28.68 78.23L30.12 78.23L30.12 78.54C30.12 78.75 30.18 78.9 30.28 78.98C30.38 79.07 30.54 79.11 30.74 79.11C30.9 79.11 31.03 79.07 31.12 78.98C31.22 78.89 31.26 78.77 31.26 78.62C31.26 78.48 31.21 78.36 31.12 78.27C31.02 78.17 30.87 78.08 30.66 77.98L29.7 77.54C29.08 77.26 28.77 76.81 28.77 76.2C28.77 75.98 28.81 75.79 28.91 75.62C29 75.45 29.13 75.31 29.3 75.19C29.47 75.08 29.68 74.99 29.91 74.93C30.15 74.87 30.42 74.84 30.72 74.84C31.09 74.84 31.43 74.89 31.72 75C32.02 75.11 32.25 75.27 32.43 75.5C32.6 75.73 32.69 76.01 32.69 76.35L32.69 76.43L31.26 76.43L31.26 76.33C31.26 75.92 31.08 75.71 30.7 75.71C30.55 75.71 30.43 75.75 30.34 75.82C30.26 75.89 30.22 75.98 30.22 76.09C30.22 76.22 30.25 76.33 30.33 76.42C30.41 76.51 30.54 76.59 30.73 76.68L31.71 77.12C32.04 77.27 32.28 77.44 32.44 77.64C32.61 77.84 32.69 78.12 32.69 78.47C32.69 78.82 32.61 79.09 32.45 79.31C32.3 79.53 32.07 79.7 31.77 79.81C31.48 79.92 31.12 79.98 30.7 79.98C30.02 79.98 29.51 79.86 29.17 79.63C28.84 79.4 28.67 79.05 28.67 78.59L28.67 78.23L28.68 78.23Z" fill="#1D1D1B" fill-opacity="1.000000" fill-rule="nonzero"/>
	<path id="Vector" d="M36.05 77.94L37.64 77.94L37.64 78.4C37.64 78.95 37.47 79.36 37.12 79.61C36.78 79.87 36.23 80 35.49 80C35.01 80 34.6 79.94 34.29 79.83C33.97 79.72 33.73 79.54 33.58 79.3C33.42 79.07 33.35 78.76 33.35 78.39L33.35 76.25C33.35 75.99 33.42 75.75 33.58 75.54C33.73 75.33 33.97 75.16 34.29 75.04C34.61 74.92 35.02 74.86 35.49 74.86C35.97 74.86 36.37 74.92 36.69 75.05C37.01 75.17 37.25 75.34 37.41 75.55C37.56 75.76 37.64 76 37.64 76.26L37.64 76.7L36.05 76.7L36.05 76.15C36.05 76.03 35.99 75.93 35.87 75.87C35.75 75.8 35.62 75.77 35.48 75.77C35.33 75.77 35.2 75.8 35.09 75.86C34.99 75.92 34.93 76.01 34.93 76.13L34.93 78.57C34.93 78.92 35.12 79.1 35.48 79.1C35.86 79.1 36.05 78.93 36.05 78.59L36.05 77.94L36.05 77.94Z" fill="#1D1D1B" fill-opacity="1.000000" fill-rule="nonzero"/>
	<path id="Vector" d="M38.48 79.88L38.48 74.97L40.07 74.97L40.07 79.88L38.48 79.88Z" fill="#1D1D1B" fill-opacity="1.000000" fill-rule="nonzero"/>
	<path id="Vector" d="M41.03 79.88L41.03 74.97L44.72 74.97L44.72 75.9L42.62 75.9L42.62 76.85L44.56 76.85L44.56 77.78L42.62 77.78L42.62 78.95L44.72 78.95L44.72 79.88L41.03 79.88Z" fill="#1D1D1B" fill-opacity="1.000000" fill-rule="nonzero"/>
	<path id="Vector" d="M45.5 79.88L45.5 74.97L47.03 74.97L48.37 78.06L48.38 78.06C48.37 77.91 48.34 77.67 48.28 77.34C48.22 77.01 48.18 76.77 48.17 76.63C48.15 76.49 48.14 76.35 48.14 76.2L48.14 74.97L49.65 74.97L49.65 79.88L48.12 79.88L46.75 76.89L46.74 76.89C46.75 76.95 46.8 77.22 46.89 77.7C46.98 78.18 47.03 78.52 47.03 78.74L47.03 79.88L45.5 79.88L45.5 79.88Z" fill="#1D1D1B" fill-opacity="1.000000" fill-rule="nonzero"/>
	<path id="Vector" d="M53.15 77.94L54.74 77.94L54.74 78.4C54.74 78.95 54.56 79.36 54.22 79.61C53.87 79.87 53.33 80 52.59 80C52.1 80 51.7 79.94 51.38 79.83C51.07 79.72 50.83 79.54 50.67 79.3C50.52 79.07 50.44 78.76 50.44 78.39L50.44 76.25C50.44 75.99 50.52 75.75 50.67 75.54C50.83 75.33 51.06 75.16 51.39 75.04C51.71 74.92 52.11 74.86 52.59 74.86C53.07 74.86 53.47 74.92 53.79 75.05C54.11 75.17 54.35 75.34 54.5 75.55C54.66 75.76 54.74 76 54.74 76.26L54.74 76.7L53.15 76.7L53.15 76.15C53.15 76.03 53.09 75.93 52.97 75.87C52.85 75.8 52.72 75.77 52.57 75.77C52.43 75.77 52.3 75.8 52.19 75.86C52.09 75.92 52.03 76.01 52.03 76.13L52.03 78.57C52.03 78.92 52.21 79.1 52.57 79.1C52.96 79.1 53.15 78.93 53.15 78.59L53.15 77.94L53.15 77.94Z" fill="#1D1D1B" fill-opacity="1.000000" fill-rule="nonzero"/>
	<path id="Vector" d="M55.58 79.88L55.58 74.97L59.26 74.97L59.26 75.9L57.16 75.9L57.16 76.85L59.11 76.85L59.11 77.78L57.16 77.78L57.16 78.95L59.26 78.95L59.26 79.88L55.58 79.88Z" fill="#1D1D1B" fill-opacity="1.000000" fill-rule="nonzero"/>
	<path id="Vector" d="M66.18 74.97L68.39 74.97L68.39 79.88L66.87 79.88L66.87 78.16C66.87 77.91 66.88 77.54 66.9 77.04C66.92 76.53 66.94 76.19 66.96 76.02L66.95 76.02L65.97 79.88L64.87 79.88L63.89 76.02L63.88 76.02C63.93 76.72 63.96 77.43 63.96 78.15L63.96 79.88L62.45 79.88L62.45 74.97L64.66 74.97L65.17 76.96C65.21 77.11 65.26 77.39 65.31 77.8C65.37 78.21 65.4 78.45 65.41 78.51L65.42 78.51C65.44 78.43 65.47 78.18 65.53 77.77C65.58 77.35 65.63 77.08 65.66 76.96L66.17 74.97L66.18 74.97Z" fill="#1D1D1B" fill-opacity="1.000000" fill-rule="nonzero"/>
	<path id="Vector" d="M69.34 79.88L69.34 74.97L73.03 74.97L73.03 75.9L70.93 75.9L70.93 76.85L72.87 76.85L72.87 77.78L70.93 77.78L70.93 78.95L73.03 78.95L73.03 79.88L69.34 79.88Z" fill="#1D1D1B" fill-opacity="1.000000" fill-rule="nonzero"/>
	<path id="Vector" d="M73.81 79.88L73.81 74.97L77.5 74.97L77.5 75.9L75.4 75.9L75.4 76.85L77.34 76.85L77.34 77.78L75.4 77.78L75.4 78.95L77.5 78.95L77.5 79.88L73.81 79.88Z" fill="#1D1D1B" fill-opacity="1.000000" fill-rule="nonzero"/>
	<path id="Vector" d="M79.21 79.88L79.21 75.96L77.97 75.96L77.97 74.97L81.83 74.97L81.83 75.96L80.67 75.96L80.67 79.88L79.21 79.88L79.21 79.88Z" fill="#1D1D1B" fill-opacity="1.000000" fill-rule="nonzero"/>
	<path id="Vector" d="M82.25 78.23L83.69 78.23L83.69 78.54C83.69 78.75 83.74 78.9 83.85 78.98C83.95 79.07 84.1 79.11 84.31 79.11C84.47 79.11 84.6 79.07 84.69 78.98C84.78 78.89 84.83 78.77 84.83 78.62C84.83 78.48 84.78 78.36 84.69 78.27C84.59 78.17 84.44 78.08 84.22 77.98L83.27 77.54C82.65 77.26 82.34 76.81 82.34 76.2C82.34 75.98 82.38 75.79 82.47 75.62C82.57 75.45 82.7 75.31 82.87 75.19C83.04 75.08 83.24 74.99 83.48 74.93C83.72 74.87 83.99 74.84 84.29 74.84C84.66 74.84 84.99 74.89 85.29 75C85.59 75.11 85.82 75.27 86 75.5C86.17 75.73 86.26 76.01 86.26 76.35L86.26 76.43L84.83 76.43L84.83 76.33C84.83 75.92 84.64 75.71 84.27 75.71C84.12 75.71 84 75.75 83.91 75.82C83.83 75.89 83.78 75.98 83.78 76.09C83.78 76.22 83.82 76.33 83.9 76.42C83.98 76.51 84.11 76.59 84.3 76.68L85.28 77.12C85.61 77.27 85.85 77.44 86.01 77.64C86.18 77.84 86.26 78.12 86.26 78.47C86.26 78.82 86.18 79.09 86.02 79.31C85.87 79.53 85.64 79.7 85.34 79.81C85.05 79.92 84.69 79.98 84.27 79.98C83.59 79.98 83.08 79.86 82.74 79.63C82.41 79.4 82.24 79.05 82.24 78.59L82.24 78.23L82.25 78.23Z" fill="#1D1D1B" fill-opacity="1.000000" fill-rule="nonzero"/>
	<path id="Vector" d="M90.44 79.88L90.44 75.96L89.19 75.96L89.19 74.97L93.06 74.97L93.06 75.96L91.89 75.96L91.89 79.88L90.44 79.88L90.44 79.88Z" fill="#1D1D1B" fill-opacity="1.000000" fill-rule="nonzero"/>
	<path id="Vector" d="M95.27 77.81L95.27 79.88L93.68 79.88L93.68 74.97L95.27 74.97L95.27 76.82L96.3 76.82L96.3 74.97L97.89 74.97L97.89 79.88L96.3 79.88L96.3 77.81L95.27 77.81Z" fill="#1D1D1B" fill-opacity="1.000000" fill-rule="nonzero"/>
	<path id="Vector" d="M98.88 79.88L98.88 74.97L102.56 74.97L102.56 75.9L100.46 75.9L100.46 76.85L102.41 76.85L102.41 77.78L100.46 77.78L100.46 78.95L102.56 78.95L102.56 79.88L98.88 79.88Z" fill="#1D1D1B" fill-opacity="1.000000" fill-rule="nonzero"/>
	<path id="Vector" d="M107.75 77.24L109.83 77.24L109.83 79.88L108.79 79.88L108.72 79.46C108.65 79.62 108.48 79.75 108.22 79.84C107.96 79.94 107.65 79.99 107.31 79.99C106.85 79.99 106.47 79.88 106.15 79.66C105.83 79.43 105.67 79.07 105.67 78.58L105.67 76.24C105.67 75.95 105.74 75.7 105.89 75.49C106.04 75.28 106.27 75.12 106.58 75.01C106.89 74.91 107.28 74.85 107.75 74.85C108.46 74.85 108.98 74.97 109.32 75.21C109.65 75.45 109.82 75.8 109.82 76.24L109.82 76.61L108.31 76.61L108.31 76.11C108.31 75.87 108.13 75.75 107.78 75.75C107.6 75.75 107.45 75.78 107.35 75.85C107.25 75.92 107.2 76.01 107.2 76.12L107.2 78.66C107.2 78.8 107.26 78.91 107.37 78.99C107.49 79.07 107.62 79.11 107.77 79.11C107.91 79.11 108.04 79.07 108.15 78.99C108.26 78.91 108.31 78.81 108.31 78.67L108.31 78.12L107.75 78.12L107.75 77.24L107.75 77.24Z" fill="#1D1D1B" fill-opacity="1.000000" fill-rule="nonzero"/>
	<path id="Vector" d="M110.58 76.24C110.58 75.98 110.66 75.74 110.81 75.53C110.96 75.33 111.2 75.16 111.53 75.04C111.85 74.92 112.25 74.86 112.73 74.86C113.21 74.86 113.61 74.92 113.92 75.05C114.24 75.17 114.48 75.33 114.63 75.54C114.78 75.75 114.85 75.99 114.85 76.25L114.85 78.45C114.85 78.95 114.68 79.34 114.33 79.6C113.99 79.86 113.45 79.99 112.72 79.99C111.29 79.99 110.58 79.48 110.58 78.45L110.58 76.25L110.58 76.24ZM112.72 75.76C112.57 75.76 112.44 75.8 112.33 75.87C112.22 75.94 112.17 76.04 112.17 76.17L112.17 78.66C112.17 78.79 112.22 78.9 112.33 78.98C112.44 79.05 112.57 79.09 112.72 79.09C112.86 79.09 112.99 79.05 113.1 78.98C113.21 78.9 113.27 78.79 113.27 78.66L113.27 76.17C113.27 76.04 113.21 75.94 113.1 75.87C112.99 75.79 112.86 75.76 112.72 75.76L112.72 75.76Z" fill="#1D1D1B" fill-opacity="1.000000" fill-rule="nonzero"/>
	<path id="Vector" d="M115.71 79.88L115.71 74.97L117.3 74.97L117.3 78.89L119.18 78.89L119.18 79.88L115.71 79.88L115.71 79.88Z" fill="#1D1D1B" fill-opacity="1.000000" fill-rule="nonzero"/>
	<path id="Vector" d="M119.87 79.88L119.87 74.97L122.08 74.97C122.54 74.97 122.92 75.02 123.22 75.1C123.51 75.19 123.73 75.32 123.87 75.51C124.01 75.7 124.09 75.93 124.09 76.22L124.09 78.61C124.09 79.46 123.42 79.88 122.08 79.88L119.87 79.88L119.87 79.88ZM121.46 79L121.85 79C122.08 79 122.25 78.96 122.35 78.88C122.45 78.8 122.5 78.67 122.5 78.48L122.5 76.36C122.5 76.18 122.45 76.05 122.35 75.97C122.24 75.89 122.08 75.85 121.84 75.85L121.46 75.85L121.46 79L121.46 79Z" fill="#1D1D1B" fill-opacity="1.000000" fill-rule="nonzero"/>
	<path id="Vector" d="M127.17 78.23L128.61 78.23L128.61 78.54C128.61 78.75 128.66 78.9 128.77 78.98C128.87 79.07 129.02 79.11 129.23 79.11C129.39 79.11 129.52 79.07 129.61 78.98C129.7 78.89 129.75 78.77 129.75 78.62C129.75 78.48 129.7 78.36 129.61 78.27C129.51 78.17 129.36 78.08 129.14 77.98L128.19 77.54C127.57 77.26 127.26 76.81 127.26 76.2C127.26 75.98 127.3 75.79 127.39 75.62C127.49 75.45 127.62 75.31 127.79 75.19C127.96 75.08 128.16 74.99 128.4 74.93C128.64 74.87 128.91 74.84 129.21 74.84C129.58 74.84 129.91 74.89 130.21 75C130.51 75.11 130.74 75.27 130.92 75.5C131.09 75.73 131.18 76.01 131.18 76.35L131.18 76.43L129.75 76.43L129.75 76.33C129.75 75.92 129.56 75.71 129.19 75.71C129.03 75.71 128.92 75.75 128.83 75.82C128.75 75.89 128.7 75.98 128.7 76.09C128.7 76.22 128.74 76.33 128.82 76.42C128.89 76.51 129.03 76.59 129.22 76.68L130.2 77.12C130.53 77.27 130.77 77.44 130.93 77.64C131.1 77.84 131.18 78.12 131.18 78.47C131.18 78.82 131.1 79.09 130.94 79.31C130.79 79.53 130.56 79.7 130.26 79.81C129.97 79.92 129.61 79.98 129.19 79.98C128.51 79.98 128 79.86 127.66 79.63C127.33 79.4 127.16 79.05 127.16 78.59L127.16 78.23L127.17 78.23Z" fill="#1D1D1B" fill-opacity="1.000000" fill-rule="nonzero"/>
	<path id="Vector" d="M132.96 79.88L132.96 75.96L131.71 75.96L131.71 74.97L135.58 74.97L135.58 75.96L134.41 75.96L134.41 79.88L132.96 79.88L132.96 79.88Z" fill="#1D1D1B" fill-opacity="1.000000" fill-rule="nonzero"/>
	<path id="Vector" d="M135.47 79.88L136.9 74.97L138.8 74.97L140.25 79.88L138.7 79.88L138.46 78.9L137.25 78.9L137.05 79.88L135.47 79.88L135.47 79.88ZM137.4 78.02L138.25 78.02L137.83 75.86L137.82 75.86L137.4 78.02Z" fill="#1D1D1B" fill-opacity="1.000000" fill-rule="nonzero"/>
	<path id="Vector" d="M140.78 79.88L140.78 74.97L142.31 74.97L143.65 78.06L143.66 78.06C143.65 77.91 143.62 77.67 143.56 77.34C143.5 77.01 143.47 76.77 143.45 76.63C143.43 76.49 143.42 76.35 143.42 76.2L143.42 74.97L144.93 74.97L144.93 79.88L143.4 79.88L142.03 76.89L142.02 76.89C142.03 76.95 142.08 77.22 142.17 77.7C142.26 78.18 142.31 78.52 142.31 78.74L142.31 79.88L140.78 79.88L140.78 79.88Z" fill="#1D1D1B" fill-opacity="1.000000" fill-rule="nonzero"/>
	<path id="Vector" d="M145.92 79.88L145.92 74.97L148.13 74.97C148.59 74.97 148.97 75.02 149.27 75.1C149.56 75.19 149.78 75.32 149.92 75.51C150.06 75.7 150.14 75.93 150.14 76.22L150.14 78.61C150.14 79.46 149.47 79.88 148.13 79.88L145.92 79.88L145.92 79.88ZM147.51 79L147.9 79C148.13 79 148.3 78.96 148.4 78.88C148.5 78.8 148.55 78.67 148.55 78.48L148.55 76.36C148.55 76.18 148.5 76.05 148.4 75.97C148.3 75.89 148.13 75.85 147.89 75.85L147.51 75.85L147.51 79L147.51 79Z" fill="#1D1D1B" fill-opacity="1.000000" fill-rule="nonzero"/>
	<path id="Vector" d="M150.5 79.88L151.93 74.97L153.83 74.97L155.29 79.88L153.73 79.88L153.49 78.9L152.28 78.9L152.08 79.88L150.5 79.88L150.5 79.88ZM152.44 78.02L153.28 78.02L152.86 75.86L152.85 75.86L152.44 78.02Z" fill="#1D1D1B" fill-opacity="1.000000" fill-rule="nonzero"/>
	<path id="Vector" d="M157.75 77.97L157.4 77.97L157.4 79.88L155.81 79.88L155.81 74.97L158.3 74.97C158.63 74.97 158.93 75.02 159.19 75.11C159.46 75.21 159.66 75.35 159.81 75.53C159.96 75.72 160.04 75.95 160.04 76.21C160.04 76.57 159.97 76.84 159.83 77.02C159.69 77.2 159.46 77.34 159.14 77.45C159.69 77.57 159.96 77.86 159.96 78.33L159.96 79.26C159.96 79.57 160.06 79.72 160.25 79.72L160.25 79.88L158.85 79.88C158.66 79.88 158.54 79.83 158.47 79.72C158.41 79.62 158.38 79.46 158.38 79.24L158.38 78.44C158.38 78.27 158.33 78.15 158.24 78.08C158.15 78 157.98 77.96 157.74 77.96L157.75 77.97ZM157.4 75.85L157.4 77.09L157.8 77.09C158.23 77.09 158.45 76.88 158.45 76.47C158.45 76.06 158.23 75.85 157.79 75.85L157.4 75.85L157.4 75.85Z" fill="#1D1D1B" fill-opacity="1.000000" fill-rule="nonzero"/>
	<path id="Vector" d="M160.87 79.88L160.87 74.97L163.08 74.97C163.54 74.97 163.92 75.02 164.22 75.1C164.51 75.19 164.73 75.32 164.87 75.51C165.01 75.7 165.09 75.93 165.09 76.22L165.09 78.61C165.09 79.46 164.42 79.88 163.08 79.88L160.87 79.88L160.87 79.88ZM162.46 79L162.85 79C163.08 79 163.25 78.96 163.35 78.88C163.45 78.8 163.5 78.67 163.5 78.48L163.5 76.36C163.5 76.18 163.45 76.05 163.35 75.97C163.24 75.89 163.08 75.85 162.84 75.85L162.46 75.85L162.46 79L162.46 79Z" fill="#1D1D1B" fill-opacity="1.000000" fill-rule="nonzero"/>
	<path id="Vector" d="M69.95 6.92L72.88 6.92L72.88 15.96C72.88 16.75 73.2 17.14 73.85 17.14C74.49 17.14 74.83 16.75 74.83 15.96L74.83 6.92L77.76 6.92L77.76 15.49C77.76 16.89 77.43 17.89 76.78 18.48C76.12 19.07 75.15 19.36 73.84 19.36C72.54 19.36 71.56 19.07 70.92 18.48C70.27 17.9 69.95 16.9 69.95 15.49L69.95 6.92L69.95 6.92Z" fill="#D6222F" fill-opacity="1.000000" fill-rule="nonzero"/>
	<path id="Vector" d="M79.23 14.99L81.9 14.99L81.9 15.75C81.9 16.27 82 16.64 82.19 16.85C82.38 17.06 82.66 17.16 83.04 17.16C83.34 17.16 83.57 17.05 83.74 16.84C83.92 16.62 84 16.33 84 15.95C84 15.6 83.91 15.31 83.74 15.07C83.56 14.84 83.28 14.6 82.89 14.36L81.13 13.28C79.97 12.58 79.4 11.47 79.4 9.94C79.4 9.42 79.48 8.94 79.65 8.52C79.82 8.1 80.07 7.74 80.38 7.46C80.7 7.17 81.08 6.96 81.52 6.81C81.96 6.66 82.45 6.59 83 6.59C83.69 6.59 84.31 6.72 84.86 6.99C85.4 7.25 85.84 7.66 86.16 8.22C86.48 8.78 86.64 9.49 86.64 10.33L86.64 10.53L84 10.53L84 10.28C84 9.26 83.66 8.76 82.97 8.76C82.68 8.76 82.46 8.84 82.31 9.02C82.15 9.19 82.07 9.41 82.07 9.69C82.07 10.02 82.14 10.29 82.28 10.5C82.42 10.72 82.67 10.93 83.02 11.14L84.83 12.24C85.43 12.61 85.89 13.05 86.19 13.54C86.49 14.04 86.64 14.72 86.64 15.6C86.64 16.47 86.5 17.12 86.21 17.67C85.92 18.23 85.5 18.64 84.96 18.91C84.41 19.18 83.74 19.32 82.97 19.32C81.71 19.32 80.77 19.03 80.15 18.46C79.54 17.88 79.23 17.03 79.23 15.89L79.23 14.99L79.23 14.99Z" fill="#D6222F" fill-opacity="1.000000" fill-rule="nonzero"/>
	<path id="Vector" d="M87.19 19.07L89.83 6.92L93.33 6.92L96.02 19.07L93.14 19.07L92.7 16.63L90.47 16.63L90.1 19.07L87.18 19.07L87.19 19.07ZM90.76 14.45L92.32 14.45L91.54 9.1L91.52 9.1L90.76 14.45Z" fill="#D6222F" fill-opacity="1.000000" fill-rule="nonzero"/>
	<path id="Vector" d="M51.99 33.42L60.97 33.42L60.97 44.91L56.48 44.91L56.2 43.1C55.88 43.78 55.16 44.34 54.02 44.78C52.88 45.21 51.57 45.43 50.08 45.43C48.1 45.43 46.42 44.94 45.04 43.96C43.66 42.98 42.97 41.41 42.97 39.26L42.97 29.08C42.97 27.8 43.29 26.71 43.94 25.8C44.58 24.9 45.57 24.21 46.91 23.74C48.26 23.26 49.95 23.03 51.99 23.03C55.04 23.03 57.3 23.55 58.77 24.6C60.24 25.65 60.97 27.14 60.97 29.08L60.97 30.71L54.42 30.71L54.42 28.54C54.42 27.47 53.65 26.93 52.11 26.93C51.32 26.93 50.7 27.09 50.27 27.39C49.83 27.7 49.61 28.09 49.61 28.57L49.61 39.63C49.61 40.22 49.86 40.7 50.36 41.06C50.86 41.41 51.43 41.59 52.07 41.59C52.71 41.59 53.23 41.42 53.71 41.08C54.18 40.74 54.41 40.27 54.41 39.68L54.41 37.27L51.99 37.27L51.99 33.43L51.99 33.42ZM64.26 29.07C64.26 27.91 64.59 26.88 65.25 25.98C65.91 25.08 66.94 24.36 68.34 23.84C69.74 23.32 71.47 23.06 73.55 23.06C75.63 23.06 77.35 23.33 78.74 23.85C80.12 24.38 81.13 25.1 81.78 26.01C82.44 26.92 82.77 27.96 82.77 29.1L82.77 38.69C82.77 40.87 82.01 42.54 80.5 43.68C79 44.82 76.67 45.4 73.51 45.4C67.34 45.4 64.26 43.16 64.26 38.69L64.26 29.08L64.26 29.07ZM73.51 26.96C72.85 26.96 72.29 27.12 71.83 27.43C71.36 27.73 71.13 28.18 71.13 28.75L71.13 39.59C71.13 40.18 71.37 40.65 71.84 40.99C72.32 41.32 72.87 41.49 73.51 41.49C74.15 41.49 74.69 41.32 75.17 40.98C75.65 40.64 75.89 40.18 75.89 39.59L75.89 28.75C75.89 28.18 75.66 27.74 75.18 27.43C74.71 27.12 74.15 26.96 73.51 26.96ZM86.46 44.91L86.46 23.53L93.34 23.53L93.34 40.62L101.48 40.62L101.48 44.91L86.46 44.91ZM104.5 44.91L104.5 23.53L114.07 23.53C116.06 23.53 117.71 23.72 118.99 24.1C120.28 24.48 121.23 25.07 121.84 25.87C122.46 26.68 122.77 27.71 122.77 28.95L122.77 39.37C122.77 43.06 119.87 44.91 114.07 44.91L104.5 44.91L104.5 44.91ZM111.37 41.07L113.08 41.07C114.07 41.07 114.78 40.9 115.23 40.56C115.67 40.22 115.89 39.63 115.89 38.81L115.89 29.58C115.89 28.78 115.67 28.21 115.22 27.87C114.78 27.54 114.05 27.37 113.04 27.37L111.37 27.37L111.37 41.07L111.37 41.07ZM0.4 69.21L0.4 47.82L7.03 47.82L12.86 61.25L12.9 61.25C12.85 60.62 12.7 59.58 12.46 58.13C12.21 56.68 12.05 55.65 11.96 55.05C11.87 54.46 11.83 53.82 11.83 53.15L11.83 47.83L18.38 47.83L18.38 69.21L11.75 69.21L5.84 56.19L5.8 56.19C5.84 56.46 6.05 57.63 6.44 59.71C6.83 61.79 7.03 63.3 7.03 64.24L7.03 69.21L0.4 69.21L0.4 69.21ZM22.63 47.82L29.5 47.82L29.5 63.72C29.5 65.12 30.26 65.81 31.77 65.81C33.28 65.81 34.07 65.12 34.07 63.72L34.07 47.82L40.94 47.82L40.94 62.9C40.94 65.37 40.18 67.12 38.64 68.16C37.11 69.2 34.82 69.71 31.77 69.71C28.71 69.71 26.42 69.2 24.9 68.17C23.39 67.13 22.63 65.38 22.63 62.9L22.63 47.82ZM49.09 69.21L49.09 52.11L43.69 52.11L43.69 47.82L60.44 47.82L60.44 52.11L55.4 52.11L55.4 69.21L49.09 69.21L49.09 69.21ZM71.52 60.87L70.01 60.87L70.01 69.21L63.14 69.21L63.14 47.82L73.94 47.82C75.37 47.82 76.66 48.03 77.8 48.43C78.94 48.84 79.84 49.45 80.48 50.27C81.13 51.09 81.45 52.07 81.45 53.21C81.45 54.77 81.15 55.94 80.55 56.73C79.96 57.51 78.96 58.15 77.56 58.63C79.94 59.14 81.13 60.41 81.13 62.44L81.13 66.52C81.13 67.86 81.54 68.52 82.36 68.52L82.36 69.21L76.33 69.21C75.51 69.21 74.96 68.97 74.68 68.51C74.41 68.05 74.27 67.36 74.27 66.44L74.27 62.92C74.27 62.2 74.07 61.68 73.67 61.35C73.27 61.03 72.56 60.87 71.52 60.87ZM70.01 51.66L70.01 57.03L71.77 57.03C73.64 57.03 74.58 56.13 74.58 54.35C74.58 52.56 73.63 51.66 71.73 51.66L70.01 51.66L70.01 51.66ZM85.02 69.21L85.02 47.82L91.89 47.82L91.89 69.21L85.02 69.21ZM100.13 69.21L100.13 52.11L94.72 52.11L94.72 47.82L111.48 47.82L111.48 52.11L106.44 52.11L106.44 69.21L100.12 69.21L100.13 69.21ZM114.18 69.21L114.18 47.82L121.05 47.82L121.05 69.21L114.18 69.21ZM124.78 53.36C124.78 52.21 125.11 51.17 125.78 50.27C126.44 49.37 127.47 48.65 128.87 48.13C130.26 47.61 132 47.35 134.08 47.35C136.15 47.35 137.88 47.62 139.26 48.14C140.64 48.67 141.66 49.39 142.31 50.3C142.97 51.22 143.29 52.25 143.29 53.39L143.29 62.98C143.29 65.16 142.54 66.83 141.03 67.97C139.52 69.11 137.19 69.69 134.04 69.69C127.87 69.69 124.78 67.45 124.78 62.98L124.78 53.37L124.78 53.36ZM134.04 51.25C133.38 51.25 132.82 51.41 132.35 51.72C131.89 52.02 131.66 52.47 131.66 53.04L131.66 63.88C131.66 64.47 131.89 64.94 132.37 65.28C132.84 65.61 133.4 65.78 134.04 65.78C134.68 65.78 135.22 65.61 135.7 65.27C136.18 64.93 136.42 64.47 136.42 63.88L136.42 53.04C136.42 52.47 136.18 52.03 135.71 51.72C135.24 51.41 134.68 51.25 134.04 51.25ZM147 69.2L147 47.82L153.63 47.82L159.47 61.25L159.5 61.25C159.45 60.62 159.3 59.58 159.06 58.13C158.81 56.68 158.65 55.65 158.56 55.05C158.47 54.45 158.43 53.82 158.43 53.15L158.43 47.82L164.98 47.82L164.98 69.21L158.35 69.21L152.44 56.19L152.4 56.19C152.44 56.45 152.65 57.63 153.04 59.71C153.43 61.79 153.63 63.3 153.63 64.23L153.63 69.21L147 69.21L147 69.2Z" fill="url(#paint_linear_9_452_0)" fill-opacity="1.000000" fill-rule="nonzero"/>
</svg>
