<svg width="57.000000" height="40.078125" viewBox="0 0 57 40.0781" fill="none" xmlns="http://www.w3.org/2000/svg" xmlns:xlink="http://www.w3.org/1999/xlink">
	<desc>
			Created with Pixso.
	</desc>
	<defs/>
	<path id="Vector" d="M50.32 0L6.67 0C2.99 0 0 2.99 0 6.67L0 33.39C0 37.08 2.99 40.07 6.67 40.07L50.32 40.07C54 40.07 57 37.08 57 33.39L57 6.67C57 2.99 54 0 50.32 0ZM49.44 4.45L30.08 24.15C29.67 24.57 29.09 24.81 28.5 24.81C27.9 24.81 27.32 24.57 26.91 24.15L7.55 4.45L49.44 4.45ZM52.54 33.39C52.54 34.62 51.54 35.62 50.32 35.62L6.67 35.62C5.45 35.62 4.45 34.62 4.45 33.39L4.45 7.64L23.73 27.27C24.98 28.54 26.71 29.27 28.5 29.27C30.28 29.27 32.01 28.54 33.26 27.27L52.54 7.64L52.54 33.39Z" fill="#FFFFFF" fill-opacity="1.000000" fill-rule="nonzero"/>
	<path id="Vector" d="M50.32 0L6.67 0C2.99 0 0 2.99 0 6.67L0 33.39C0 37.08 2.99 40.07 6.67 40.07L50.32 40.07C54 40.07 57 37.08 57 33.39L57 6.67C57 2.99 54 0 50.32 0ZM4.52 1.4Q5.51 1 6.67 1L50.32 1Q51.48 1 52.47 1.4Q53.49 1.82 54.33 2.66Q55.17 3.5 55.59 4.52Q56 5.51 56 6.67L56 33.39Q56 34.55 55.59 35.55Q55.17 36.57 54.33 37.41Q53.49 38.25 52.47 38.67Q51.48 39.07 50.32 39.07L6.67 39.07Q5.51 39.07 4.52 38.67Q3.5 38.25 2.66 37.41Q1.82 36.57 1.4 35.55Q1 34.55 1 33.39L1 6.67Q1 5.51 1.4 4.52Q1.82 3.5 2.66 2.66Q3.5 1.82 4.52 1.4ZM30.8 24.85L30.8 24.85L51.82 3.45L5.17 3.45L26.19 24.85Q26.67 25.33 27.24 25.57Q27.82 25.81 28.5 25.81Q29.17 25.81 29.75 25.57Q30.32 25.33 30.8 24.85ZM48.45 5.45L30.08 24.15C29.67 24.57 29.09 24.81 28.5 24.81C27.9 24.81 27.32 24.57 26.91 24.15L8.54 5.45L7.55 4.45L49.44 4.45L48.45 5.45ZM6.67 36.62L50.32 36.62Q51.93 36.62 52.74 35.81Q53.54 35.01 53.54 33.39L53.54 5.2L32.55 26.57Q31.71 27.42 30.7 27.84Q29.69 28.27 28.5 28.27Q27.3 28.27 26.29 27.84Q25.28 27.42 24.44 26.57L3.45 5.2L3.45 33.39Q3.45 35.01 4.25 35.81Q5.06 36.62 6.67 36.62ZM52.54 9.07L52.54 33.39C52.54 34.62 51.54 35.62 50.32 35.62L6.67 35.62C5.45 35.62 4.45 34.62 4.45 33.39L4.45 7.64L5.45 8.66L23.73 27.27C24.98 28.54 26.71 29.27 28.5 29.27C30.28 29.27 32.01 28.54 33.26 27.27L51.54 8.66L52.54 7.64L52.54 9.07Z" fill="#FFFFFF" fill-opacity="1.000000" fill-rule="evenodd"/>
</svg>
