<svg width="59.000000" height="75.199707" viewBox="0 0 59 75.1997" fill="none" xmlns="http://www.w3.org/2000/svg" xmlns:xlink="http://www.w3.org/1999/xlink">
	<desc>
			Created with Pixso.
	</desc>
	<defs/>
	<path id="Vector" d="M29.5 1C45.23 1 58 13.76 58 29.5C58 39.77 47.91 52.22 39.12 63.06C36.37 66.45 33.54 69.88 31.03 73.46C30.31 74.49 28.79 74.42 28.16 73.37C25.96 70.3 23.15 66.88 20.18 63.27C11.27 52.43 1 39.94 1 29.5C1 13.76 13.76 1 29.5 1ZM29.5 4.43C15.65 4.43 4.43 15.65 4.43 29.5C4.43 38.73 14.27 50.71 22.82 61.1C25.27 64.08 27.62 66.94 29.62 69.58C31.64 66.86 34 63.94 36.47 60.9C44.89 50.51 54.56 38.57 54.56 29.5C54.56 15.65 43.34 4.43 29.5 4.43Z" fill="#FFFFFF" fill-opacity="1.000000" fill-rule="nonzero"/>
	<path id="Vector" d="M52.7 46.6Q59 36.59 59 29.5Q59 23.39 56.84 18.17Q54.68 12.96 50.35 8.64Q46.03 4.31 40.82 2.15Q35.6 0 29.5 0Q23.39 0 18.17 2.15Q12.96 4.31 8.64 8.64Q4.31 12.96 2.15 18.17Q0 23.39 0 29.5Q0 36.71 6.4 46.77Q10.11 52.6 19.41 63.9L19.41 63.9L19.42 63.92Q25.14 70.88 27.33 73.92Q27.7 74.52 28.23 74.84Q28.79 75.17 29.53 75.19Q30.26 75.22 30.84 74.93Q31.42 74.64 31.85 74.04Q34.08 70.86 39.04 64.75Q39.61 64.04 39.9 63.69Q49.05 52.4 52.7 46.6ZM28.16 73.37C25.96 70.3 23.15 66.88 20.18 63.27C11.27 52.43 1 39.94 1 29.5C1 13.76 13.76 1 29.5 1C45.23 1 58 13.76 58 29.5C58 39.77 47.91 52.22 39.12 63.06C36.37 66.45 33.54 69.88 31.03 73.46C30.31 74.49 28.79 74.42 28.16 73.37ZM29.5 4.43C15.65 4.43 4.43 15.65 4.43 29.5C4.43 38.73 14.27 50.71 22.82 61.1C25.02 63.77 27.13 66.35 28.99 68.75C29.2 69.03 29.41 69.31 29.62 69.58C29.82 69.31 30.03 69.03 30.24 68.75C32.12 66.27 34.25 63.64 36.47 60.9C44.89 50.51 54.56 38.57 54.56 29.5C54.56 15.65 43.34 4.43 29.5 4.43ZM29.61 67.93Q31.69 65.2 35.69 60.27L35.69 60.27Q44.39 49.53 47.83 44.16Q53.56 35.22 53.56 29.5Q53.56 24.51 51.8 20.25Q50.04 16 46.51 12.48Q42.99 8.95 38.74 7.19Q34.48 5.43 29.5 5.43Q24.51 5.43 20.25 7.19Q16 8.95 12.48 12.48Q8.95 16 7.19 20.25Q5.43 24.51 5.43 29.5Q5.43 35.32 11.26 44.32Q14.76 49.72 23.59 60.46L23.59 60.46Q27.55 65.27 29.61 67.93Z" fill="#FFFFFF" fill-opacity="1.000000" fill-rule="evenodd"/>
	<path id="Vector" d="M29.5 15.52C37.21 15.52 43.47 21.78 43.47 29.5C43.47 37.21 37.21 43.47 29.5 43.47C21.78 43.47 15.52 37.21 15.52 29.5C15.52 21.78 21.78 15.52 29.5 15.52ZM18.96 29.5C18.96 35.32 23.67 40.03 29.5 40.03C35.32 40.03 40.03 35.32 40.03 29.5C40.03 15.49 18.96 15.75 18.96 29.5Z" fill="#FFFFFF" fill-opacity="1.000000" fill-rule="nonzero"/>
	<path id="Vector" d="M43.37 35.24Q44.47 32.59 44.47 29.5Q44.47 26.4 43.37 23.75Q42.27 21.1 40.08 18.91Q37.89 16.72 35.24 15.62Q32.59 14.52 29.5 14.52Q26.4 14.52 23.75 15.62Q21.1 16.72 18.91 18.91Q16.72 21.1 15.62 23.75Q14.52 26.4 14.52 29.5Q14.52 32.59 15.62 35.24Q16.72 37.89 18.91 40.08Q21.1 42.27 23.75 43.37Q26.4 44.47 29.5 44.47Q32.59 44.47 35.24 43.37Q37.89 42.27 40.08 40.08Q42.27 37.89 43.37 35.24ZM29.5 15.52C37.21 15.52 43.47 21.78 43.47 29.5C43.47 37.21 37.21 43.47 29.5 43.47C21.78 43.47 15.52 37.21 15.52 29.5C15.52 21.78 21.78 15.52 29.5 15.52ZM18.96 29.5C18.96 35.32 23.67 40.03 29.5 40.03C35.32 40.03 40.03 35.32 40.03 29.5C40.03 15.49 18.96 15.75 18.96 29.5ZM33.16 38.33Q31.47 39.03 29.5 39.03Q27.52 39.03 25.83 38.33Q24.15 37.64 22.75 36.24Q21.35 34.84 20.65 33.16Q19.96 31.47 19.96 29.5Q19.96 26.54 21.27 24.4Q21.93 23.34 22.91 22.48Q23.79 21.71 24.79 21.18Q26.87 20.1 29.5 20.09Q32.18 20.07 34.27 21.17Q35.24 21.67 36.08 22.41Q36.98 23.19 37.6 24.15Q39.03 26.36 39.03 29.5Q39.03 31.47 38.34 33.16Q37.64 34.84 36.24 36.24Q34.84 37.64 33.16 38.33Z" fill="#FFFFFF" fill-opacity="1.000000" fill-rule="evenodd"/>
</svg>
