<svg width="59.000000" height="59.000000" viewBox="0 0 59 59" fill="none" xmlns="http://www.w3.org/2000/svg" xmlns:xlink="http://www.w3.org/1999/xlink">
	<desc>
			Created with Pixso.
	</desc>
	<defs/>
	<path id="Vector" d="M49.65 9.34C44.26 3.96 37.11 1 29.5 1C21.88 1 14.73 3.96 9.34 9.34C3.96 14.73 1 21.88 1 29.5C1 37.11 3.96 44.26 9.34 49.65C14.73 55.03 21.88 58 29.5 58C37.11 58 44.26 55.03 49.65 49.65C55.03 44.26 58 37.11 58 29.5C58 21.88 55.03 14.73 49.65 9.34ZM30.33 18.33C34.84 18.29 38.83 17.92 42.17 17.45C43.12 20.9 43.65 24.7 43.72 28.66L30.33 28.66L30.33 18.33ZM30.33 16.6L30.33 2.92C33.73 3.28 36.93 5.93 39.43 10.5C40.3 12.1 41.05 13.87 41.67 15.77C38.44 16.22 34.61 16.56 30.33 16.6ZM28.6 16.6C24.38 16.57 20.61 16.24 17.42 15.8C18.04 13.89 18.79 12.11 19.67 10.5C22.12 6.01 25.26 3.37 28.6 2.94L28.6 16.6ZM28.6 18.33L28.6 28.66L15.38 28.66C15.45 24.72 15.98 20.92 16.92 17.49C20.22 17.94 24.15 18.29 28.6 18.33ZM13.66 28.66L2.74 28.66C2.89 23.79 4.34 19.25 6.76 15.37C8.21 15.8 11.12 16.58 15.2 17.23C14.26 20.76 13.72 24.64 13.66 28.66ZM13.65 30.39C13.72 34.5 14.26 38.46 15.24 42.06C11.29 42.69 8.43 43.44 6.92 43.88C4.42 39.96 2.9 35.34 2.74 30.39L13.65 30.39ZM15.38 30.39L28.6 30.39L28.6 40.96C24.17 41 20.25 41.35 16.96 41.8C15.99 38.3 15.45 34.42 15.38 30.39ZM28.6 42.69L28.6 56.19C25.26 55.77 22.12 53.12 19.67 48.63C18.82 47.07 18.08 45.34 17.47 43.49C20.65 43.06 24.4 42.73 28.6 42.69ZM30.33 56.21L30.33 42.69C34.59 42.74 38.4 43.08 41.62 43.52C41.01 45.36 40.28 47.08 39.43 48.63C36.93 53.2 33.73 55.86 30.33 56.21ZM30.33 40.97L30.33 30.39L43.72 30.39C43.65 34.44 43.11 38.33 42.13 41.84C38.8 41.37 34.82 41.01 30.33 40.97ZM45.45 30.39L56.25 30.39C56.09 35.35 54.57 39.97 52.05 43.9C50.59 43.47 47.76 42.73 43.85 42.09C44.83 38.49 45.38 34.51 45.45 30.39ZM45.44 28.66C45.37 24.63 44.84 20.74 43.89 17.19C47.92 16.54 50.8 15.77 52.21 15.35C54.64 19.23 56.1 23.79 56.25 28.66L45.44 28.66ZM51.2 13.84C49.68 14.27 46.99 14.94 43.4 15.51C42.73 13.41 41.91 11.44 40.94 9.67C39.5 7.02 37.8 4.95 35.96 3.51C42.18 5.06 47.55 8.79 51.2 13.84ZM23.19 3.47C21.32 4.91 19.62 7 18.16 9.67C17.19 11.45 16.36 13.43 15.69 15.55C12.05 14.97 9.33 14.29 7.78 13.86C11.46 8.76 16.9 5 23.19 3.47ZM7.96 45.39C9.55 44.95 12.21 44.29 15.74 43.74C16.4 45.8 17.21 47.72 18.16 49.46C19.55 52.01 21.16 54.02 22.93 55.45C16.85 53.91 11.59 50.29 7.96 45.39ZM36.22 55.41C37.96 53.99 39.56 51.98 40.94 49.46C41.88 47.73 42.69 45.82 43.35 43.78C46.82 44.33 49.46 44.98 51.01 45.41C47.42 50.26 42.22 53.85 36.22 55.41Z" fill="#FFFFFF" fill-opacity="1.000000" fill-rule="nonzero"/>
	<path id="Vector" d="M40.82 2.16Q35.6 0 29.5 0Q23.39 0 18.17 2.16Q12.96 4.32 8.64 8.64Q4.31 12.96 2.15 18.17Q0 23.39 0 29.5Q0 35.6 2.15 40.82Q4.32 46.03 8.64 50.35Q12.96 54.68 18.17 56.84Q23.39 59 29.5 59Q35.6 59 40.82 56.84Q46.03 54.68 50.35 50.35Q54.68 46.03 56.84 40.82Q59 35.6 59 29.5Q59 23.39 56.84 18.17Q54.68 12.96 50.35 8.64Q46.03 4.31 40.82 2.16ZM49.65 9.34C44.26 3.96 37.11 1 29.5 1C21.88 1 14.73 3.96 9.34 9.34C3.96 14.73 1 21.88 1 29.5C1 37.11 3.96 44.26 9.34 49.65C14.73 55.03 21.88 58 29.5 58C37.11 58 44.26 55.03 49.65 49.65C55.03 44.26 58 37.11 58 29.5C58 21.88 55.03 14.73 49.65 9.34ZM20.96 4.12C15.96 5.8 11.62 8.93 8.42 13C8.2 13.28 7.99 13.57 7.78 13.86C8.08 13.94 8.43 14.03 8.81 14.14C10.42 14.55 12.76 15.08 15.69 15.55C16.36 13.43 17.19 11.45 18.16 9.67C19.17 7.82 20.3 6.25 21.52 4.98C22.06 4.42 22.62 3.91 23.19 3.47C22.44 3.66 21.69 3.87 20.96 4.12ZM19.58 5.68Q17.32 6.6 15.32 7.91Q12.05 10.07 9.48 13.27Q12.05 13.93 15.01 14.42Q15.97 11.59 17.28 9.19Q18.35 7.23 19.58 5.68ZM21.32 53.95C20.18 52.71 19.11 51.21 18.16 49.46C17.21 47.72 16.4 45.8 15.74 43.74C12.9 44.19 10.61 44.7 9 45.11C8.62 45.21 8.27 45.3 7.96 45.39C8.18 45.68 8.4 45.96 8.62 46.24C11.75 50.13 15.94 53.13 20.75 54.8C21.47 55.05 22.19 55.27 22.93 55.45C22.38 55.01 21.84 54.5 21.32 53.95ZM36.22 55.41C36.77 54.96 37.3 54.46 37.82 53.89C38.95 52.67 40 51.19 40.94 49.46C41.88 47.73 42.69 45.82 43.35 43.78C46.14 44.22 48.39 44.73 49.97 45.13C50.36 45.23 50.71 45.32 51.01 45.41C50.8 45.7 50.58 45.98 50.35 46.26C47.26 50.1 43.13 53.07 38.4 54.75C37.68 55 36.96 55.22 36.22 55.41ZM39.74 53.17Q41.82 52.28 43.68 51.06Q46.8 49 49.29 45.99Q46.82 45.38 44.02 44.9Q43.08 47.63 41.82 49.94Q40.85 51.72 39.74 53.17ZM37.63 5.03C38.83 6.29 39.94 7.84 40.94 9.67C41.91 11.44 42.73 13.41 43.4 15.51C46.28 15.05 48.58 14.53 50.16 14.12C50.55 14.02 50.9 13.92 51.2 13.84C50.99 13.55 50.77 13.26 50.55 12.98C47.39 8.96 43.12 5.87 38.19 4.17C37.46 3.92 36.71 3.7 35.96 3.51C36.53 3.96 37.09 4.46 37.63 5.03ZM39.57 5.75Q40.77 7.28 41.82 9.19Q43.12 11.57 44.08 14.38Q46.97 13.89 49.5 13.26Q46.95 10.09 43.72 7.95Q41.77 6.66 39.57 5.75ZM19.41 53.24Q18.28 51.76 17.28 49.94Q16.01 47.61 15.06 44.86Q12.2 45.34 9.68 45.97Q12.2 49.02 15.35 51.09Q17.27 52.34 19.41 53.24ZM30.33 3.93L30.33 16.6C30.66 16.6 31 16.59 31.33 16.59C34.78 16.51 37.92 16.25 40.66 15.9C41 15.86 41.34 15.81 41.67 15.77C41.56 15.44 41.45 15.12 41.34 14.8C40.79 13.27 40.15 11.83 39.43 10.5C37.18 6.39 34.35 3.82 31.33 3.1C31 3.02 30.66 2.96 30.33 2.92L30.33 3.93ZM31.33 4.12L31.33 15.59Q35.87 15.49 40.32 14.94Q39.55 12.81 38.55 10.98Q35.38 5.19 31.33 4.12ZM18.43 15.93C18.09 15.89 17.75 15.85 17.42 15.8C17.53 15.48 17.64 15.15 17.75 14.84C18.3 13.29 18.94 11.84 19.67 10.5C21.88 6.46 24.64 3.92 27.6 3.14C27.93 3.05 28.26 2.99 28.6 2.94L28.6 16.6C28.26 16.6 27.93 16.6 27.6 16.59C24.21 16.52 21.13 16.27 18.43 15.93ZM18.77 14.97Q23.13 15.5 27.6 15.59L27.6 4.17Q23.64 5.32 20.55 10.98Q19.55 12.82 18.77 14.97ZM44.14 18.17C44.93 21.44 45.38 24.99 45.44 28.66L56.25 28.66C56.24 28.33 56.23 27.99 56.2 27.66C55.9 23.16 54.48 18.97 52.21 15.35C50.92 15.73 48.4 16.41 44.88 17.03C44.56 17.08 44.23 17.14 43.89 17.19C43.97 17.51 44.06 17.84 44.14 18.17ZM45.13 18Q46.24 22.6 46.42 27.66L55.2 27.66Q55 24.73 54.16 21.98Q53.3 19.15 51.76 16.52Q48.76 17.37 45.13 18ZM3.74 28.66L2.74 28.66C2.75 28.33 2.76 27.99 2.79 27.66C3.09 23.17 4.51 18.98 6.76 15.37C8.09 15.76 10.65 16.45 14.21 17.07C14.53 17.12 14.86 17.18 15.2 17.23C15.11 17.55 15.03 17.88 14.95 18.2C14.16 21.47 13.72 25.01 13.66 28.66L3.74 28.66ZM3.79 27.66Q3.99 24.73 4.82 21.99Q5.68 19.16 7.22 16.54Q10.27 17.4 13.96 18.04Q12.86 22.62 12.68 27.66L3.79 27.66ZM42.17 17.45C38.83 17.92 34.84 18.29 30.33 18.33L30.33 18.33L30.33 28.66L43.72 28.66C43.71 28.33 43.7 27.99 43.69 27.66C43.55 24.06 43.04 20.61 42.17 17.45ZM42.69 27.66Q42.51 22.87 41.43 18.56Q36.46 19.21 31.33 19.31L31.33 27.66L42.69 27.66ZM28.6 28.66L28.6 18.33C24.15 18.29 20.22 17.94 16.92 17.49C16.06 20.63 15.55 24.08 15.41 27.66C15.4 27.99 15.39 28.33 15.38 28.66L28.6 28.66ZM16.41 27.66L27.6 27.66L27.6 19.32Q22.54 19.22 17.66 18.59Q16.59 22.89 16.41 27.66ZM55.25 30.39L45.45 30.39C45.39 34.14 44.92 37.78 44.1 41.12C44.02 41.45 43.93 41.77 43.85 42.09C44.18 42.15 44.52 42.21 44.84 42.26C48.24 42.85 50.71 43.51 52.05 43.9C54.4 40.24 55.88 35.97 56.2 31.39C56.22 31.06 56.24 30.72 56.25 30.39L55.25 30.39ZM55.2 31.39L46.42 31.39Q46.25 36.58 45.09 41.29Q48.64 41.91 51.6 42.73Q53.2 40.08 54.11 37.2Q54.98 34.4 55.2 31.39ZM14.99 41.08C15.07 41.41 15.15 41.74 15.24 42.06C14.9 42.11 14.57 42.17 14.25 42.22C10.81 42.81 8.3 43.48 6.92 43.88C4.59 40.22 3.11 35.96 2.79 31.39C2.77 31.06 2.75 30.72 2.74 30.39L13.65 30.39C13.71 34.13 14.17 37.75 14.99 41.08ZM14 41.25Q10.39 41.87 7.38 42.71Q5.78 40.06 4.88 37.19Q4.01 34.39 3.79 31.39L12.68 31.39Q12.85 36.56 14 41.25ZM31.33 30.39L30.33 30.39L30.33 40.97C34.82 41.01 38.8 41.37 42.13 41.84C43.02 38.62 43.56 35.08 43.69 31.39C43.7 31.06 43.71 30.72 43.72 30.39L31.33 30.39ZM31.33 31.39L31.33 39.98Q36.44 40.08 41.39 40.73Q42.51 36.31 42.69 31.39L31.33 31.39ZM28.6 30.39L15.38 30.39C15.39 30.72 15.4 31.06 15.41 31.39C15.54 35.06 16.07 38.59 16.96 41.8C20.25 41.35 24.17 41 28.6 40.96L28.6 30.39ZM27.6 31.39L16.41 31.39Q16.58 36.29 17.7 40.69Q22.57 40.07 27.6 39.98L27.6 31.39ZM28.6 55.18L28.6 56.19C28.26 56.15 27.93 56.08 27.6 56C24.64 55.22 21.88 52.67 19.67 48.63C18.97 47.34 18.34 45.94 17.8 44.45C17.69 44.13 17.58 43.81 17.47 43.49C17.8 43.44 18.14 43.4 18.48 43.35C21.17 43.02 24.23 42.77 27.6 42.71C27.93 42.7 28.26 42.69 28.6 42.69L28.6 55.18ZM27.6 54.96L27.6 43.71Q23.16 43.8 18.82 44.32Q19.58 46.38 20.55 48.15Q23.64 53.81 27.6 54.96ZM30.33 43.69L30.33 56.21C30.66 56.17 31 56.12 31.33 56.04C34.35 55.31 37.18 52.75 39.43 48.63C40.12 47.35 40.74 45.96 41.28 44.48C41.4 44.17 41.51 43.85 41.62 43.52C41.28 43.48 40.95 43.43 40.61 43.39C37.88 43.04 34.76 42.78 31.33 42.71C31 42.7 30.66 42.7 30.33 42.69L30.33 43.69ZM31.33 43.71L31.33 55.01Q35.38 53.95 38.55 48.15Q39.51 46.39 40.26 44.35Q35.84 43.81 31.33 43.71Z" fill="#FFFFFF" fill-opacity="1.000000" fill-rule="evenodd"/>
</svg>
